<svg id="visual" viewBox="0 0 900 600" width="900" height="600" xmlns="http://www.w3.org/2000/svg" xmlns:xlink="http://www.w3.org/1999/xlink" version="1.1"><rect x="0" y="0" width="900" height="600" fill="#FCFCFC"></rect><defs><linearGradient id="grad1_0" x1="33.3%" y1="100%" x2="100%" y2="0%"><stop offset="20%" stop-color="#fcfcfc" stop-opacity="1"></stop><stop offset="80%" stop-color="#fcfcfc" stop-opacity="1"></stop></linearGradient></defs><defs><linearGradient id="grad2_0" x1="0%" y1="100%" x2="66.7%" y2="0%"><stop offset="20%" stop-color="#fcfcfc" stop-opacity="1"></stop><stop offset="80%" stop-color="#fcfcfc" stop-opacity="1"></stop></linearGradient></defs><g transform="translate(900, 600)"><path d="M-459.7 0C-429.7 -49.7 -399.7 -99.4 -382.5 -158.4C-365.3 -217.4 -360.9 -285.7 -325.1 -325.1C-289.3 -364.5 -222.1 -375 -162.6 -392.6C-103.2 -410.3 -51.6 -435 0 -459.7L0 0Z" fill="#E7BC48"></path></g><g transform="translate(0, 0)"><path d="M459.7 0C429.4 48.9 399 97.9 382.5 158.4C365.9 219 363.2 291.2 325.1 325.1C287 358.9 213.5 354.4 153.5 370.5C93.4 386.5 46.7 423.1 0 459.7L0 0Z" fill="#E7BC48"></path></g></svg>