<svg id="visual" viewBox="0 0 900 600" width="900" height="600" xmlns="http://www.w3.org/2000/svg" xmlns:xlink="http://www.w3.org/1999/xlink" version="1.1"><rect x="0" y="0" width="900" height="600" fill="#FCFCFC"></rect><defs><linearGradient id="grad1_0" x1="33.3%" y1="100%" x2="100%" y2="0%"><stop offset="20%" stop-color="#fcfcfc" stop-opacity="1"></stop><stop offset="80%" stop-color="#fcfcfc" stop-opacity="1"></stop></linearGradient></defs><defs><linearGradient id="grad2_0" x1="0%" y1="100%" x2="66.7%" y2="0%"><stop offset="20%" stop-color="#fcfcfc" stop-opacity="1"></stop><stop offset="80%" stop-color="#fcfcfc" stop-opacity="1"></stop></linearGradient></defs><g transform="translate(900, 600)"><path d="M-459.7 0C-433.1 -51.9 -406.4 -103.8 -388 -160.7C-369.6 -217.6 -359.5 -279.5 -325.1 -325.1C-290.6 -370.6 -232 -399.7 -173.7 -419.4C-115.5 -439.2 -57.8 -449.4 0 -459.7L0 0Z" fill="#E7BC48"></path></g><g transform="translate(0, 0)"><path d="M459.7 0C453.6 60.4 447.4 120.9 424.7 175.9C402 231 362.7 280.6 316.8 316.8C270.9 353 218.4 375.7 164.6 397.3C110.7 418.8 55.3 439.3 0 459.7L0 0Z" fill="#E7BC48"></path></g></svg>